<svg width="124" height="25" viewBox="0 0 124 25" fill="none" xmlns="http://www.w3.org/2000/svg">
<path d="M6.71875 16.3228L5.375 24.0415H0.03125L3.96875 1.2915L12.1406 1.30713C14.6719 1.30713 16.6615 2.01025 18.1094 3.4165C19.5677 4.82275 20.2083 6.64567 20.0312 8.88525C19.9062 10.4165 19.4167 11.7446 18.5625 12.8696C17.7083 13.9946 16.5781 14.854 15.1719 15.4478C13.776 16.0415 12.2083 16.3384 10.4688 16.3384L6.71875 16.3228ZM7.45312 12.0884L10.6719 12.1196C12.026 12.0884 13.0625 11.6509 13.7812 10.8071C14.5 9.95296 14.7865 8.90609 14.6406 7.6665C14.5573 7.03109 14.3125 6.53109 13.9062 6.1665C13.5104 5.7915 12.9844 5.58317 12.3281 5.5415L8.59375 5.52588L7.45312 12.0884ZM29.8125 6.82275C31.3229 6.84359 32.6302 7.2238 33.7344 7.96338C34.8385 8.69255 35.6458 9.71338 36.1562 11.0259C36.6771 12.3384 36.8646 13.7967 36.7188 15.4009L36.6875 15.7446C36.3958 18.3384 35.4323 20.4321 33.7969 22.0259C32.1615 23.6196 30.1406 24.3957 27.7344 24.354C26.2344 24.3332 24.9375 23.9634 23.8438 23.2446C22.75 22.5155 21.9375 21.4998 21.4062 20.1978C20.8854 18.8957 20.6979 17.4478 20.8438 15.854C21.1042 13.0832 22.0521 10.8748 23.6875 9.229C25.3333 7.58317 27.375 6.78109 29.8125 6.82275ZM25.9844 15.854L25.9375 16.7759C25.7917 19.0988 26.5 20.2811 28.0625 20.3228C30.0833 20.3853 31.2552 18.7446 31.5781 15.4009L31.6406 13.979C31.6615 13.0415 31.4844 12.2967 31.1094 11.7446C30.7448 11.1821 30.2031 10.8905 29.4844 10.8696C28.5365 10.8384 27.7552 11.229 27.1406 12.0415C26.5365 12.8436 26.151 14.1144 25.9844 15.854ZM45.3906 17.8071L43.5156 19.4321L42.7188 24.0415H37.5781L41.75 0.0258789H46.8906L44.5156 12.8384L45.1406 12.0884L49.8125 7.13525H56.3281L49.1406 14.3228L53.5 24.0415H47.8594L45.3906 17.8071ZM62.7656 24.354C61.2552 24.3436 59.9062 23.9894 58.7188 23.2915C57.5417 22.5832 56.651 21.604 56.0469 20.354C55.4427 19.0936 55.2031 17.7082 55.3281 16.1978L55.375 15.7603C55.6562 12.979 56.6198 10.7811 58.2656 9.1665C59.9219 7.5415 61.9479 6.76025 64.3438 6.82275C65.7917 6.84359 67.0312 7.21338 68.0625 7.93213C69.0938 8.64046 69.849 9.62484 70.3281 10.8853C70.8073 12.1353 70.9635 13.5415 70.7969 15.104L70.5 17.2446H60.4375C60.4583 18.13 60.7083 18.8488 61.1875 19.4009C61.6667 19.953 62.3646 20.2446 63.2812 20.2759C64.7708 20.3175 66.1094 19.7446 67.2969 18.5571L69.4531 21.4165C68.8177 22.3228 67.9271 23.0363 66.7812 23.5571C65.6458 24.0675 64.401 24.3332 63.0469 24.354H62.7656ZM64.0156 10.8696C63.2865 10.8488 62.651 11.078 62.1094 11.5571C61.5781 12.0363 61.1146 12.8384 60.7188 13.9634H65.8594L65.9531 13.5103C66.0156 13.1457 66.026 12.8019 65.9844 12.479C65.8073 11.4373 65.151 10.9009 64.0156 10.8696ZM72.2656 15.5571C72.5885 12.8905 73.401 10.755 74.7031 9.15088C76.0052 7.54671 77.7031 6.77067 79.7969 6.82275C81.2344 6.86442 82.4271 7.46859 83.375 8.63525L85.0156 0.0415039H90.1719L86.0156 24.0415H81.4375L81.6562 22.2134C80.3958 23.6925 78.9948 24.4113 77.4531 24.3696C75.8281 24.3488 74.5521 23.7498 73.625 22.5728C72.7083 21.3853 72.2188 19.7967 72.1562 17.8071C72.1354 17.1509 72.1562 16.5103 72.2188 15.8853L72.2656 15.5571ZM77.3906 15.9009C77.3073 16.5675 77.2708 17.1509 77.2812 17.6509C77.2812 19.38 77.8646 20.2603 79.0312 20.2915C80.0417 20.3228 80.9427 19.8384 81.7344 18.8384L82.8906 12.354C82.5469 11.3957 81.8594 10.9009 80.8281 10.8696C79.8698 10.8488 79.0938 11.2655 78.5 12.1196C77.9167 12.9634 77.5469 14.2238 77.3906 15.9009ZM97.4531 24.354C95.9427 24.3436 94.5938 23.9894 93.4062 23.2915C92.2292 22.5832 91.3385 21.604 90.7344 20.354C90.1302 19.0936 89.8906 17.7082 90.0156 16.1978L90.0625 15.7603C90.3438 12.979 91.3073 10.7811 92.9531 9.1665C94.6094 7.5415 96.6354 6.76025 99.0312 6.82275C100.479 6.84359 101.719 7.21338 102.75 7.93213C103.781 8.64046 104.536 9.62484 105.016 10.8853C105.495 12.1353 105.651 13.5415 105.484 15.104L105.188 17.2446H95.125C95.1458 18.13 95.3958 18.8488 95.875 19.4009C96.3542 19.953 97.0521 20.2446 97.9688 20.2759C99.4583 20.3175 100.797 19.7446 101.984 18.5571L104.141 21.4165C103.505 22.3228 102.615 23.0363 101.469 23.5571C100.333 24.0675 99.0885 24.3332 97.7344 24.354H97.4531ZM98.7031 10.8696C97.974 10.8488 97.3385 11.078 96.7969 11.5571C96.2656 12.0363 95.8021 12.8384 95.4062 13.9634H100.547L100.641 13.5103C100.703 13.1457 100.714 12.8019 100.672 12.479C100.495 11.4373 99.8385 10.9009 98.7031 10.8696ZM114.719 11.7603L117.828 7.13525H123.391L117.625 15.604L120.719 24.0415H115.594L113.812 19.0728L110.516 24.0415H104.891L110.953 15.1353L108 7.13525H113.172L114.719 11.7603Z" fill="white"/>
</svg>
